<svg xmlns="http://www.w3.org/2000/svg" width="9448" height="6828" viewBox="0 0 9448 6828">
  <defs>
    <style>
      .cls-1 {
        fill: none;
        stroke: #fff;
        stroke-width: 25px;
        fill-rule: evenodd;
      }
    </style>
  </defs>
  <path id="Forme_1" data-name="Forme 1" class="cls-1" d="M371,585c57.055-46.912,112.968-89.6,158-112,34.646-17.237,97.119-38.049,158-54,53.136-13.922,107.182-24.66,146-28,43.921-3.779,90.906-2.648,144,2,48.47,4.244,91.12,10.232,138,18,55.16,9.14,110.37,17,168,24,39.75,7.98,78.44,16.5,118,26,64.26,15.423,127.24,32.383,184,50,59.55,18.483,145.44,50.308,222,80,60.79,23.577,111.82,45.57,166,76,74.18,41.662,131.85,86.707,170,128a603.519,603.519,0,0,1,154,332c8.51,69.18,4.87,133.52-8,192-11.63,52.84-34.78,114.03-76,182-23.23,38.31-73.31,99.54-126,154-49.19,50.84-100.82,98.03-142,128-50.17,36.51-108.7,70.1-180,102-60,26.84-134.25,51.41-216,72-82.44,20.76-157.34,33.84-228,40a1327.414,1327.414,0,0,1-252-2q-111.341-11.52-228-44c-77.911-21.76-156.928-51.54-238-90-73.173-34.72-139.8-72.28-190-108-77.348-55.05-136.2-110.49-180-164-48.433-59.18-85.149-119.38-112-180-31.657-71.47-48.477-134.28-56-192A642.159,642.159,0,0,1,83,961c16.094-57.376,37.127-105.1,62-146,26.007-42.761,69.831-91.737,124-142C298.106,645.993,334.992,614.606,371,585Z"/>
  <path id="Forme_2" data-name="Forme 2" class="cls-1" d="M701,833c71.293-71.456,141.3-122.036,202-154,49.266-25.944,105.68-47.938,174-66a907.611,907.611,0,0,1,224-30c79.99-.724,151.23,7.91,216,24,57.46,14.274,116.79,36.233,180,68,83.31,41.87,158.32,98.369,188,130,34.13,36.381,70.36,88.427,102,156,40.56,86.63,57.29,166.12,60,222,2.87,59.06-5.67,136.1-38,226-26.07,72.48-61.83,134.46-104,186-33.78,41.29-96.45,97.53-174,146-82.78,51.74-177.65,92.71-284,120-116.34,29.86-216.6,37.42-298,32-71.21-4.74-186.408-30.26-302-76-105.3-41.67-193.89-98.13-236-138-64.493-61.07-107.126-128.14-130-198-24.466-74.72-20.218-142.56-12-168,6.612-20.47,20.033-47.89,32-70a277.009,277.009,0,0,0,16-36,261.388,261.388,0,0,0,10-40c2.822-15.94,6.2-32.08,10-48,4.915-20.59,13.753-46.33,24-72,14.042-35.18,29.51-69.208,44-94C626.524,916.172,658.938,875.158,701,833Z"/>
  <path id="Forme_3" data-name="Forme 3" class="cls-1" d="M1049,841c45.84-.775,145.68,18.048,240,50,61.08,20.692,118.2,45.5,154,68,61.47,38.639,108.15,83.93,142,136,31.52,48.49,44.47,94.99,46,122,1.54,27.04-3.37,66.55-24,112-14.45,31.83-38.47,67.26-80,104-31.16,27.56-86.47,61.22-156,86a703.848,703.848,0,0,1-194,40c-84.36,5.1-160.43-4.31-228-24-82.974-24.18-143.052-57.22-188-92-63.168-48.89-100.51-101.58-118-140-20.854-45.81-26.845-86.31-26-114,0.641-21.02,12.877-74.5,40-124a418.38,418.38,0,0,1,90-112c36.383-32.208,80.428-59.715,132-80C926.845,854.181,982.522,842.124,1049,841Z"/>
  <path id="Forme_4" data-name="Forme 4" class="cls-1" d="M1123,1001c50.63-8.116,102.17-9.062,122-4a203.582,203.582,0,0,1,82,42c26.46,22.6,43.88,48.29,54,74,13.13,33.35,19.77,78,4,120-5.62,14.96-32.99,53.71-74,84a332.224,332.224,0,0,1-112,54c-51.72,13.77-99.82,12.87-124,8-37.1-7.47-69.71-22.97-96-44-43.965-35.18-61.246-71.15-66-96-2.63-13.75-2.645-39.97,4-68,4.438-18.72,12.292-39.02,26-62,14.377-24.11,30.254-42.3,44-54,13.5-11.49,39.3-26.95,70-38C1077.93,1009.47,1097.99,1005.01,1123,1001Z"/>
</svg>
