<svg version="1.1" viewBox="0.0 0.0 1000.0 250.0" fill="none" stroke="none" stroke-linecap="square" stroke-miterlimit="10" xmlns:xlink="http://www.w3.org/1999/xlink" xmlns="http://www.w3.org/2000/svg"><clipPath id="p.0"><path d="m0 0l1000.0 0l0 250.0l-1000.0 0l0 -250.0z" clip-rule="nonzero"/></clipPath><g clip-path="url(#p.0)"><path fill="#000000" fill-opacity="0.0" d="m0 0l1000.0 0l0 250.0l-1000.0 0z" fill-rule="evenodd"/><path fill="#000000" fill-opacity="0.0" d="m135.86351 -17.501312l422.55115 0l0 109.88976l-422.55115 0z" fill-rule="evenodd"/><path fill="#d4ac0d" d="m203.47823 68.5367q0 0.65625 -0.234375 0.96875q-0.21875 0.3125 -0.59375 0.453125q-0.375 0.125 -0.90625 0.125q-0.53125 0 -1.1875 0l-41.34375 0q-0.453125 0 -0.671875 -0.046875q-0.21875 -0.046875 -0.328125 -0.21875q-0.109375 -0.171875 -0.140625 -0.453125q-0.015625 -0.296875 -0.015625 -0.828125l0 -45.6875q0 -0.65625 0.015625 -1.046875q0.03125 -0.40625 0.15625 -0.625q0.140625 -0.234375 0.46875 -0.3125q0.328125 -0.09375 1.0 -0.09375l40.40625 0q0.671875 0 1.25 0q0.578125 0 1.03125 0.140625q0.46875 0.125 0.734375 0.4375q0.265625 0.3125 0.265625 0.96875q0 0.53125 -0.265625 0.828125q-0.265625 0.28125 -0.734375 0.421875q-0.453125 0.125 -1.03125 0.125q-0.578125 0 -1.25 0l-38.28125 0l0 19.390625l38.0625 0q0.984375 0 1.640625 0.265625q0.671875 0.265625 0.671875 1.15625q0 0.96875 -0.5625 1.28125q-0.546875 0.3125 -1.4375 0.3125l-38.375 0l0 21.0625l38.375 0q0.671875 0 1.234375 0q0.578125 0 1.046875 0.140625q0.46875 0.125 0.734375 0.421875q0.265625 0.28125 0.265625 0.8125zm49.920456 -1.640625q0 0.578125 -0.09375 1.15625q-0.078125 0.578125 -0.28125 1.015625q-0.1875 0.4375 -0.546875 0.734375q-0.359375 0.28125 -0.890625 0.28125q-0.65625 0 -1.0 -0.28125q-0.328125 -0.296875 -0.5 -0.734375q-0.171875 -0.4375 -0.203125 -1.015625q-0.015625 -0.578125 -0.015625 -1.15625l0 -15.3125q0 -3.453125 -0.515625 -6.015625q-0.5 -2.578125 -1.984375 -4.28125q-1.484375 -1.703125 -4.125 -2.546875q-2.625 -0.84375 -6.875 -0.84375q-2.609375 0 -5.53125 0.421875q-2.921875 0.421875 -5.578125 1.46875q-2.65625 1.03125 -4.703125 2.765625q-2.03125 1.71875 -2.828125 4.34375l0 20.0q0 0.578125 -0.046875 1.15625q-0.046875 0.578125 -0.21875 1.015625q-0.171875 0.4375 -0.515625 0.734375q-0.328125 0.28125 -0.859375 0.28125q-0.609375 0 -1.0 -0.28125q-0.375 -0.296875 -0.578125 -0.734375q-0.1875 -0.4375 -0.265625 -1.015625q-0.0625 -0.578125 -0.0625 -1.15625l0 -28.6875q0 -0.75 0.3125 -1.390625q0.3125 -0.640625 1.546875 -0.640625q1.109375 0 1.390625 0.59375q0.296875 0.59375 0.296875 1.4375l0 5.578125q1.234375 -2.828125 3.453125 -4.53125q2.21875 -1.703125 4.84375 -2.5625q2.640625 -0.875 5.359375 -1.140625q2.71875 -0.265625 4.984375 -0.265625q4.78125 0 8.03125 0.828125q3.25 0.8125 5.265625 2.71875q2.015625 1.90625 2.875 5.03125q0.859375 3.109375 0.859375 7.71875l0 15.3125zm32.314514 -21.46875q0 -6.90625 2.109375 -11.75q2.109375 -4.84375 6.265625 -7.921875q4.15625 -3.078125 10.375 -4.484375q6.21875 -1.421875 14.453125 -1.421875q5.765625 0 11.15625 1.046875q5.40625 1.03125 10.984375 3.328125q0.703125 0.3125 1.015625 0.78125q0.3125 0.453125 0.3125 0.90625q0 0.53125 -0.40625 0.9375q-0.390625 0.390625 -1.015625 0.390625q-0.171875 0 -0.84375 -0.234375q-5.09375 -2.125 -10.53125 -3.171875q-5.4375 -1.0625 -10.671875 -1.0625q-7.875 0 -13.453125 1.3125q-5.578125 1.296875 -9.140625 4.0625q-3.5625 2.765625 -5.203125 7.046875q-1.640625 4.265625 -1.640625 10.234375q0 5.96875 1.640625 10.25q1.640625 4.265625 5.203125 7.03125q3.5625 2.765625 9.140625 4.078125q5.578125 1.3125 13.453125 1.3125q5.234375 0 10.671875 -1.0625q5.4375 -1.0625 10.53125 -3.1875q0.359375 -0.1875 0.796875 -0.1875q0.671875 0 1.09375 0.40625q0.421875 0.390625 0.421875 0.921875q0 0.453125 -0.3125 0.890625q-0.3125 0.4375 -1.0625 0.75q-5.625 2.296875 -11.0 3.34375q-5.375 1.03125 -11.140625 1.03125q-8.234375 0 -14.453125 -1.40625q-6.21875 -1.421875 -10.375 -4.5q-4.15625 -3.078125 -6.265625 -7.921875q-2.109375 -4.84375 -2.109375 -11.75zm86.495026 25.09375q-6.09375 0 -10.3125 -1.203125q-4.203125 -1.21875 -6.796875 -3.46875q-2.578125 -2.265625 -3.734375 -5.5q-1.15625 -3.234375 -1.15625 -7.3125q0 -4.6875 1.3125 -8.03125q1.3125 -3.34375 4.03125 -5.5q2.71875 -2.171875 6.859375 -3.1875q4.140625 -1.03125 9.796875 -1.03125q5.671875 0 9.8125 1.03125q4.140625 1.015625 6.859375 3.1875q2.71875 2.15625 4.0156555 5.5q1.3125 3.34375 1.3125 8.03125q0 4.078125 -1.15625 7.3125q-1.140625 3.234375 -3.7344055 5.5q-2.578125 2.25 -6.796875 3.46875q-4.203125 1.203125 -10.3125 1.203125zm0 -2.609375q4.03125 0 6.953125 -0.59375q2.921875 -0.59375 4.984375 -1.65625q2.0625 -1.0625 3.3125 -2.484375q1.265625 -1.421875 2.0 -3.078125q0.734375 -1.65625 0.96875 -3.453125q0.25 -1.796875 0.25 -3.609375q0 -4.109375 -1.0625 -6.984375q-1.0625 -2.875 -3.328125 -4.6875q-2.25 -1.828125 -5.75 -2.640625q-3.5 -0.828125 -8.328125 -0.828125q-4.859375 0 -8.34375 0.828125q-3.46875 0.8125 -5.734375 2.640625q-2.25 1.8125 -3.3125 4.6875q-1.0625 2.875 -1.0625 6.984375q0 1.8125 0.234375 3.609375q0.25 1.796875 0.984375 3.453125q0.734375 1.65625 1.984375 3.078125q1.265625 1.421875 3.328125 2.484375q2.0625 1.0625 4.984375 1.65625q2.921875 0.59375 6.9375 0.59375zm60.56143 -31.5625q0.484375 0.140625 0.703125 0.515625q0.234375 0.375 0.234375 0.8125q0 0.578125 -0.390625 1.0625q-0.375 0.484375 -1.125 0.484375q-0.21875 0 -0.265625 -0.015625q-0.046875 -0.015625 -0.265625 -0.0625q-1.71875 -0.484375 -3.296875 -0.75q-1.5625 -0.265625 -3.421875 -0.265625q-2.609375 0 -4.984375 0.515625q-2.375 0.5 -4.296875 1.546875q-1.921875 1.03125 -3.34375 2.65625q-1.40625 1.609375 -2.125 3.78125l0 20.359375q0 1.140625 -0.3125 2.125q-0.296875 0.96875 -1.40625 0.96875q-0.625 0 -1.0 -0.265625q-0.375 -0.265625 -0.5625 -0.703125q-0.171875 -0.453125 -0.21875 -1.0q-0.03125 -0.546875 -0.03125 -1.125l0 -28.328125q0 -1.03125 0.34375 -1.75q0.359375 -0.734375 1.640625 -0.734375q0.96875 0 1.25 0.71875q0.296875 0.703125 0.296875 1.765625l0 5.125q0.71875 -2.703125 2.453125 -4.375q1.75 -1.6875 3.890625 -2.59375q2.15625 -0.90625 4.40625 -1.21875q2.265625 -0.3125 4.0 -0.3125q1.671875 0 2.890625 0.109375q1.21875 0.109375 2.09375 0.265625q0.890625 0.15625 1.546875 0.34375q0.671875 0.171875 1.296875 0.34375zm33.2016 -1.0625q3.984375 0 7.546875 0.828125q3.5625 0.8125 6.234375 2.8125q2.6875 1.984375 4.25 5.3125q1.578125 3.3125 1.578125 8.3125q0 4.953125 -1.3125 8.390625q-1.296875 3.4375 -3.796875 5.5625q-2.5 2.125 -6.15625 3.078125q-3.65625 0.9375 -8.34375 0.9375q-3.59375 0 -6.609375 -0.4375q-3.0 -0.4375 -5.453125 -1.125q-2.453125 -0.6875 -4.40625 -1.53125q-1.953125 -0.84375 -3.453125 -1.640625l-0.09375 16.109375q0 0.578125 -0.015625 1.125q-0.015625 0.5625 -0.203125 1.0q-0.171875 0.453125 -0.515625 0.71875q-0.328125 0.265625 -0.984375 0.265625q-0.671875 0 -1.0 -0.296875q-0.328125 -0.28125 -0.515625 -0.75q-0.171875 -0.46875 -0.203125 -1.0625q-0.015625 -0.59375 -0.015625 -1.265625l0 -43.28125q0 -1.421875 0.53125 -1.796875q0.53125 -0.375 1.15625 -0.375q0.75 0 1.1875 0.375q0.453125 0.375 0.453125 1.796875l0 5.84375q0.53125 -1.859375 1.8125 -3.25q1.28125 -1.40625 3.0 -2.390625q1.734375 -1.0 3.75 -1.640625q2.015625 -0.640625 4.0625 -1.0q2.0625 -0.359375 4.015625 -0.484375q1.953125 -0.140625 3.5 -0.140625zm0 2.609375q-2.65625 0.046875 -5.796875 0.421875q-3.140625 0.375 -6.03125 1.359375q-2.875 0.96875 -5.09375 2.703125q-2.203125 1.71875 -3.0 4.515625l0 16.984375q1.90625 0.71875 4.09375 1.453125q2.1875 0.71875 4.671875 1.296875q2.484375 0.578125 5.265625 0.9375q2.796875 0.34375 5.890625 0.34375q4.25 0 7.28125 -0.875q3.03125 -0.890625 5.0 -2.765625q1.96875 -1.890625 2.875 -4.78125q0.90625 -2.90625 0.90625 -6.9375q0 -4.15625 -1.265625 -6.984375q-1.25 -2.84375 -3.421875 -4.515625q-2.171875 -1.6875 -5.125 -2.421875q-2.9375 -0.734375 -6.25 -0.734375zm68.95972 22.9375q0 -2.34375 -1.65625 -3.625q-1.65625 -1.296875 -4.390625 -1.890625q-2.71875 -0.59375 -6.1875 -0.75q-3.46875 -0.15625 -7.078125 -0.265625q-3.609375 -0.109375 -7.0937195 -0.390625q-3.46875 -0.296875 -6.1875 -1.203125q-2.71875 -0.90625 -4.390625 -2.609375q-1.65625 -1.703125 -1.65625 -4.671875q0 -3.046875 1.65625 -5.0q1.671875 -1.953125 4.359375 -3.09375q2.703125 -1.15625 6.109375 -1.59375q3.421875 -0.453125 6.9530945 -0.453125q5.796875 0 10.796875 0.953125q5.015625 0.953125 9.296875 3.21875q0.453125 0.21875 0.609375 0.546875q0.15625 0.328125 0.1875 0.6875q0 0.578125 -0.359375 1.015625q-0.34375 0.4375 -0.78125 0.4375q-0.265625 0 -0.359375 -0.078125q-3.765625 -1.90625 -8.53125 -3.03125q-4.75 -1.140625 -10.6875 -1.140625q-3.0 0 -5.8437195 0.390625q-2.828125 0.375 -5.015625 1.234375q-2.1875 0.859375 -3.515625 2.296875q-1.328125 1.4375 -1.328125 3.609375q0 2.21875 1.65625 3.421875q1.65625 1.1875 4.375 1.734375q2.734375 0.546875 6.2030945 0.6875q3.46875 0.125 7.078125 0.265625q3.609375 0.125 7.078125 0.46875q3.484375 0.328125 6.203125 1.28125q2.734375 0.953125 4.390625 2.75q1.65625 1.78125 1.65625 4.796875q0 2.703125 -1.6875 4.5625q-1.671875 1.859375 -4.46875 2.984375q-2.78125 1.125 -6.4375 1.640625q-3.65625 0.5 -7.546875 0.5q-2.390625 0 -5.15625 -0.109375q-2.7655945 -0.109375 -5.5312195 -0.53125q-2.765625 -0.421875 -5.3125 -1.28125q-2.546875 -0.859375 -4.453125 -2.359375q-0.625 -0.5 -0.625 -1.15625q0 -0.578125 0.328125 -1.0q0.34375 -0.421875 0.828125 -0.421875q0.359375 0 0.53125 0.1875q1.859375 1.28125 4.0 2.078125q2.15625 0.796875 4.546875 1.234375q2.390625 0.4375 4.9999695 0.59375q2.609375 0.15625 5.40625 0.15625q3.3125 0 6.390625 -0.328125q3.078125 -0.328125 5.4375 -1.140625q2.375 -0.828125 3.78125 -2.171875q1.421875 -1.359375 1.421875 -3.4375z" fill-rule="nonzero"/><path fill="#000000" fill-opacity="0.0" d="m523.85034 119.367455l387.55908 0l0 109.88976l-387.55908 0z" fill-rule="evenodd"/><path fill="#d4ac0d" d="m604.09204 205.40546q0 0.65625 -0.234375 0.96875q-0.21875 0.3125 -0.59375 0.453125q-0.375 0.125 -0.90625 0.125q-0.53125 0 -1.1875 0l-41.34375 0q-0.453125 0 -0.671875 -0.046875q-0.21875 -0.046875 -0.328125 -0.21875q-0.109375 -0.171875 -0.140625 -0.453125q-0.015625 -0.296875 -0.015625 -0.828125l0 -45.6875q0 -0.65625 0.015625 -1.046875q0.03125 -0.40625 0.15625 -0.625q0.140625 -0.234375 0.46875 -0.3125q0.328125 -0.09375 1.0 -0.09375l40.40625 0q0.671875 0 1.25 0q0.578125 0 1.03125 0.140625q0.46875 0.125 0.734375 0.4375q0.265625 0.3125 0.265625 0.96875q0 0.53125 -0.265625 0.828125q-0.265625 0.28125 -0.734375 0.421875q-0.453125 0.125 -1.03125 0.125q-0.578125 0 -1.25 0l-38.28125 0l0 19.390625l38.0625 0q0.984375 0 1.640625 0.265625q0.671875 0.265625 0.671875 1.15625q0 0.96875 -0.5625 1.28125q-0.546875 0.3125 -1.4375 0.3125l-38.375 0l0 21.0625l38.375 0q0.671875 0 1.234375 0q0.578125 0 1.046875 0.140625q0.46875 0.125 0.734375 0.421875q0.265625 0.28125 0.265625 0.8125zm49.92047 -1.640625q0 0.578125 -0.09375 1.15625q-0.078125 0.578125 -0.28125 1.015625q-0.1875 0.4375 -0.546875 0.734375q-0.359375 0.28125 -0.890625 0.28125q-0.65625 0 -1.0 -0.28125q-0.328125 -0.296875 -0.5 -0.734375q-0.171875 -0.4375 -0.203125 -1.015625q-0.015625 -0.578125 -0.015625 -1.15625l0 -15.3125q0 -3.453125 -0.515625 -6.015625q-0.5 -2.578125 -1.984375 -4.28125q-1.484375 -1.703125 -4.125 -2.546875q-2.625 -0.84375 -6.875 -0.84375q-2.609375 0 -5.53125 0.421875q-2.921875 0.421875 -5.578125 1.46875q-2.65625 1.03125 -4.703125 2.765625q-2.03125 1.71875 -2.828125 4.34375l0 20.0q0 0.578125 -0.046875 1.15625q-0.046875 0.578125 -0.21875 1.015625q-0.171875 0.4375 -0.515625 0.734375q-0.328125 0.28125 -0.859375 0.28125q-0.609375 0 -1.0 -0.28125q-0.375 -0.296875 -0.578125 -0.734375q-0.1875 -0.4375 -0.265625 -1.015625q-0.0625 -0.578125 -0.0625 -1.15625l0 -28.6875q0 -0.75 0.3125 -1.390625q0.3125 -0.640625 1.546875 -0.640625q1.109375 0 1.390625 0.59375q0.296875 0.59375 0.296875 1.4375l0 5.578125q1.234375 -2.828125 3.453125 -4.53125q2.21875 -1.703125 4.84375 -2.5625q2.640625 -0.875 5.359375 -1.140625q2.71875 -0.265625 4.984375 -0.265625q4.78125 0 8.03125 0.828125q3.25 0.8125 5.265625 2.71875q2.015625 1.90625 2.875 5.03125q0.859375 3.109375 0.859375 7.71875l0 15.3125zm37.76764 0.09375q0 1.28125 -0.375 2.1875q-0.375 0.90625 -1.4375 0.90625q-1.28125 0 -1.625 -0.90625q-0.328125 -0.90625 -0.328125 -2.109375l0 -44.65625q0 -0.671875 0.015625 -1.0q0.03125 -0.328125 0.15625 -0.453125q0.140625 -0.140625 0.46875 -0.15625q0.328125 -0.03125 1.0 -0.03125l43.296875 0q0.5625 0 1.078125 0.03125q0.515625 0.015625 0.890625 0.171875q0.375 0.15625 0.59375 0.46875q0.21875 0.296875 0.21875 0.875q0 1.015625 -0.75 1.203125q-0.75 0.171875 -2.03125 0.171875l-41.171875 0l0 20.09375l34.828125 0q1.296875 0 2.109375 0.1875q0.8125 0.171875 0.8125 1.1875q0 0.578125 -0.25 0.890625q-0.234375 0.3125 -0.640625 0.46875q-0.390625 0.140625 -0.921875 0.171875q-0.53125 0.015625 -1.109375 0.015625l-34.828125 0l0 20.28125zm48.907715 -6.828125q0 2.125 1.078125 3.59375q1.09375 1.453125 3.03125 2.390625q1.953125 0.921875 4.625 1.34375q2.6875 0.421875 5.875 0.421875q3.890625 0 6.90625 -0.546875q3.015625 -0.5625 5.265625 -1.390625q2.265625 -0.84375 3.8125 -1.84375q1.546875 -1.0 2.5625 -1.921875l0 -8.90625q-4.421875 -0.609375 -9.15625 -1.15625q-4.734375 -0.5625 -9.5625 -0.5625q-3.40625 0 -6.09375 0.40625q-2.671875 0.390625 -4.53125 1.359375q-1.859375 0.96875 -2.84375 2.640625q-0.96875 1.65625 -0.96875 4.171875zm18.8125 -22.265625q-4.25 0 -7.265625 0.234375q-3.0 0.21875 -5.15625 0.578125q-2.140625 0.34375 -3.609375 0.75q-1.453125 0.390625 -2.5625 0.796875q-0.53125 0 -0.96875 -0.53125q-0.4375 -0.53125 -0.4375 -1.15625q0 -0.578125 0.53125 -0.84375q0.34375 -0.171875 1.65625 -0.5625q1.3125 -0.40625 3.671875 -0.828125q2.375 -0.421875 5.890625 -0.734375q3.515625 -0.3125 8.296875 -0.3125q2.265625 0 4.46875 0.296875q2.21875 0.28125 4.1875 1.03125q1.96875 0.75 3.671875 2.078125q1.703125 1.328125 2.921875 3.4375q1.21875 2.109375 1.921875 5.09375q0.71875 2.984375 0.71875 7.015625l0 12.75q0 0.53125 -0.046875 1.0625q-0.046875 0.53125 -0.25 1.0q-0.203125 0.453125 -0.5625 0.75q-0.34375 0.28125 -0.953125 0.28125q-1.03125 0 -1.40625 -0.921875q-0.375 -0.9375 -0.375 -2.359375l0 -3.046875q-0.875 1.109375 -2.296875 2.3125q-1.421875 1.1875 -3.59375 2.1875q-2.15625 0.984375 -5.171875 1.625q-3.015625 0.640625 -7.125 0.640625q-3.859375 0 -7.25 -0.5625q-3.375 -0.578125 -5.875 -1.8125q-2.5 -1.25 -3.9375 -3.21875q-1.4375 -1.96875 -1.4375 -4.765625q0 -3.21875 1.34375 -5.359375q1.34375 -2.15625 3.734375 -3.453125q2.390625 -1.3125 5.59375 -1.84375q3.21875 -0.53125 6.9375 -0.53125q2.796875 0 5.59375 0.203125q2.8125 0.1875 5.328125 0.5625q2.53125 0.375 4.640625 0.9375q2.109375 0.546875 3.515625 1.296875q0 -4.515625 -1.203125 -7.25q-1.1875 -2.75 -3.1875 -4.265625q-1.984375 -1.53125 -4.578125 -2.046875q-2.578125 -0.515625 -5.375 -0.515625zm52.236145 0q-5.09375 0 -8.6875 0.84375q-3.578125 0.84375 -5.859375 2.6875q-2.265625 1.828125 -3.328125 4.703125q-1.0625 2.875 -1.0625 6.90625q0 4.078125 1.171875 6.921875q1.171875 2.828125 3.53125 4.59375q2.375 1.765625 5.90625 2.5625q3.546875 0.796875 8.28125 0.796875q2.125 0 4.3125 -0.296875q2.203125 -0.3125 4.1875 -0.78125q2.0 -0.46875 3.671875 -1.046875q1.6875 -0.578125 2.75 -1.109375q0.671875 -0.21875 0.9375 -0.21875q0.5625 0 0.890625 0.34375q0.34375 0.328125 0.34375 0.8125q0 0.359375 -0.21875 0.734375q-0.21875 0.375 -0.71875 0.640625q-3.890625 1.984375 -8.0625 2.765625q-4.15625 0.765625 -8.046875 0.765625q-5.046875 0 -9.1875 -0.796875q-4.140625 -0.796875 -7.078125 -2.78125q-2.9375 -2.0 -4.578125 -5.359375q-1.640625 -3.359375 -1.640625 -8.546875q0 -5.125 1.5 -8.53125q1.515625 -3.421875 4.390625 -5.46875q2.875 -2.0625 7.046875 -2.90625q4.1875 -0.84375 9.546875 -0.84375q3.890625 0 8.046875 0.78125q4.171875 0.765625 8.0625 2.765625q0.5 0.265625 0.71875 0.640625q0.21875 0.375 0.21875 0.734375q0 0.484375 -0.34375 0.8125q-0.328125 0.328125 -0.890625 0.328125q-0.265625 0 -0.9375 -0.21875q-1.0625 -0.53125 -2.75 -1.09375q-1.671875 -0.578125 -3.671875 -1.046875q-1.984375 -0.46875 -4.1875 -0.78125q-2.1875 -0.3125 -4.265625 -0.3125zm48.520264 0q-4.125 0 -7.3125 0.71875q-3.1875 0.703125 -5.421875 2.28125q-2.234375 1.5625 -3.46875 4.046875q-1.234375 2.46875 -1.421875 6.0625l33.375 0l0 -2.390625q0 -2.21875 -0.8125 -4.15625q-0.8125 -1.953125 -2.671875 -3.40625q-1.859375 -1.46875 -4.875 -2.3125q-3.015625 -0.84375 -7.390625 -0.84375zm-2.3125 30.015625q4.21875 0 7.359375 -0.53125q3.140625 -0.53125 5.390625 -1.28125q2.265625 -0.75 3.703125 -1.546875q1.4375 -0.796875 2.234375 -1.328125q0.265625 -0.09375 0.359375 -0.09375q0.484375 0 0.90625 0.46875q0.421875 0.46875 0.421875 1.0q0 0.484375 -0.453125 0.796875q-0.390625 0.390625 -1.703125 1.234375q-1.296875 0.84375 -3.734375 1.703125q-2.4375 0.859375 -6.03125 1.53125q-3.578125 0.65625 -8.484375 0.65625q-5.140625 0 -8.734375 -1.28125q-3.578125 -1.28125 -5.84375 -3.578125q-2.25 -2.3125 -3.265625 -5.53125q-1.015625 -3.234375 -1.015625 -7.09375q0 -5.125 1.625 -8.53125q1.640625 -3.421875 4.5 -5.46875q2.859375 -2.0625 6.734375 -2.90625q3.875 -0.84375 8.34375 -0.84375q9.203125 0 13.78125 3.53125q4.59375 3.515625 4.59375 10.0625q0 0.625 -0.09375 1.375q-0.09375 0.75 -0.25 1.4375q-0.15625 0.6875 -0.359375 1.15625q-0.1875 0.453125 -0.359375 0.453125l-13.015625 0l-21.96875 -0.4375q0.09375 4.109375 1.09375 6.96875q1.0 2.859375 2.921875 4.65625q1.921875 1.78125 4.75 2.609375q2.84375 0.8125 6.59375 0.8125z" fill-rule="nonzero"/></g></svg>